# xmcd CD database file
#
# Track frame offsets:
#	150
#	42133
#	66955
#	95066
#	120703
#	149879
#	191779
#	216168
#	246633
#	268295
#
# Disc length: 3957 seconds
#
# Revision: 1
# Processed by: cddbd v1.5.2PL0 Copyright (c) Steve Scherf et al.
# Submitted via: CDex 1.51
#
DISCID=ae0f730a
DTITLE=Various Artist - Blue Note Highlights [CD1) Saxophone 
DYEAR=2009
DGENRE=Jazz
TTITLE0=Dexter Gordon - I Was Doing All Right
TTITLE1=Sonny Red - You're Driving Me Crazy
TTITLE2=Sam Rivers - Beatrice
TTITLE3=Hank Mobley - Remember
TTITLE4=Wayne Shorter - Black Nile
TTITLE5=Joe Henderson - Isotope
TTITLE6=Charlie Parker - Willis (Live)
TTITLE7=Sonny - Blues For Philly Joe
TTITLE8=Jackie McLean - Lost
TTITLE9=Johnny Griffin - The Way You Look Tonight
EXTD=YEAR: 2009
EXTT0=
EXTT1=
EXTT2=
EXTT3=
EXTT4=
EXTT5=
EXTT6=
EXTT7=
EXTT8=
EXTT9=
PLAYORDER=
